<svg width="58" height="30" viewBox="0 0 58 30" fill="none" xmlns="http://www.w3.org/2000/svg">
<path d="M0.88 23.32V18.92L13.96 0.199999H20.48V18.44H24V23.32H20.48V29H14.88V23.32H0.88ZM15.24 6.2L7.04 18.44H15.24V6.2ZM26.9253 7C26.9253 4.97333 27.512 3.38667 28.6853 2.24C29.8853 1.09333 31.4186 0.52 33.2853 0.52C35.152 0.52 36.672 1.09333 37.8453 2.24C39.0453 3.38667 39.6453 4.97333 39.6453 7C39.6453 9.05333 39.0453 10.6533 37.8453 11.8C36.672 12.9467 35.152 13.52 33.2853 13.52C31.4186 13.52 29.8853 12.9467 28.6853 11.8C27.512 10.6533 26.9253 9.05333 26.9253 7ZM52.6053 0.999998L36.8853 29H31.4453L47.1253 0.999998H52.6053ZM33.2453 3.88C31.7786 3.88 31.0453 4.92 31.0453 7C31.0453 9.10667 31.7786 10.16 33.2453 10.16C33.9653 10.16 34.5253 9.90667 34.9253 9.4C35.3253 8.86667 35.5253 8.06667 35.5253 7C35.5253 4.92 34.7653 3.88 33.2453 3.88ZM44.4853 22.96C44.4853 20.9067 45.072 19.32 46.2453 18.2C47.4453 17.0533 48.9786 16.48 50.8453 16.48C52.712 16.48 54.2186 17.0533 55.3653 18.2C56.5386 19.32 57.1253 20.9067 57.1253 22.96C57.1253 25.0133 56.5386 26.6133 55.3653 27.76C54.2186 28.9067 52.712 29.48 50.8453 29.48C48.952 29.48 47.4186 28.9067 46.2453 27.76C45.072 26.6133 44.4853 25.0133 44.4853 22.96ZM50.8053 19.84C49.2853 19.84 48.5253 20.88 48.5253 22.96C48.5253 25.0667 49.2853 26.12 50.8053 26.12C52.2986 26.12 53.0453 25.0667 53.0453 22.96C53.0453 20.88 52.2986 19.84 50.8053 19.84Z" fill="#6764FF"/>
</svg>
