<svg width="14" height="14" viewBox="0 0 14 14" fill="none" xmlns="http://www.w3.org/2000/svg">
<path d="M1.43333 0.233333L0.233333 1.43333C-0.0777778 1.74444 -0.0777778 2.27778 0.233333 2.63333L4.32222 6.72222L0.233333 10.8111C-0.0777778 11.1222 -0.0777778 11.6556 0.233333 12.0111L1.38889 13.1667C1.7 13.4778 2.23333 13.4778 2.58889 13.1667L6.67778 9.07778L10.7667 13.1667C11.0778 13.4778 11.6111 13.4778 11.9667 13.1667L13.1222 12.0111C13.4333 11.7 13.4333 11.1667 13.1222 10.8111L9.03333 6.67778L13.1222 2.58889C13.4333 2.27778 13.4333 1.74444 13.1222 1.38889L11.9667 0.233333C11.6556 -0.0777778 11.1222 -0.0777778 10.7667 0.233333L6.67778 4.32222L2.58889 0.233333C2.27778 -0.0777778 1.74444 -0.0777778 1.43333 0.233333Z" fill="#E9465A"/>
</svg>
