<svg width="17" height="16" viewBox="0 0 17 16" fill="none" xmlns="http://www.w3.org/2000/svg">
<path d="M8.343 8.68987C8.52029 8.5039 8.61919 8.25682 8.61919 7.99987C8.61919 7.74293 8.52029 7.49585 8.343 7.30987L2.474 1.14987C1.851 0.495874 0.75 0.936874 0.75 1.83987V14.1599C0.75 15.0629 1.851 15.5039 2.474 14.8499L8.343 8.68987ZM10 1.49987C10 1.36727 10.0527 1.24009 10.1464 1.14632C10.2402 1.05255 10.3674 0.999874 10.5 0.999874H12.5C12.6326 0.999874 12.7598 1.05255 12.8536 1.14632C12.9473 1.24009 13 1.36727 13 1.49987V14.4999C13 14.6325 12.9473 14.7597 12.8536 14.8534C12.7598 14.9472 12.6326 14.9999 12.5 14.9999H10.5C10.3674 14.9999 10.2402 14.9472 10.1464 14.8534C10.0527 14.7597 10 14.6325 10 14.4999V1.49987ZM14.5 0.999874C14.3674 0.999874 14.2402 1.05255 14.1464 1.14632C14.0527 1.24009 14 1.36727 14 1.49987V14.4999C14 14.6325 14.0527 14.7597 14.1464 14.8534C14.2402 14.9472 14.3674 14.9999 14.5 14.9999H16.5C16.6326 14.9999 16.7598 14.9472 16.8536 14.8534C16.9473 14.7597 17 14.6325 17 14.4999V1.49987C17 1.36727 16.9473 1.24009 16.8536 1.14632C16.7598 1.05255 16.6326 0.999874 16.5 0.999874H14.5Z" fill="#9747FF"/>
</svg>
