<svg width="346" height="288" viewBox="0 0 346 288" fill="none" xmlns="http://www.w3.org/2000/svg">
<path d="M86.4062 287.635C83.1325 287.635 79.9928 286.469 77.6779 284.395C75.363 282.32 74.0625 279.506 74.0625 276.572V232.322H55.5469C40.8199 232.308 26.7009 227.058 16.2873 217.726C5.87382 208.393 0.016336 195.739 0 182.541V49.791C0.016336 36.5927 5.87382 23.9392 16.2873 14.6065C26.7009 5.2739 40.8199 0.024406 55.5469 0.00976562H290.078C304.805 0.024406 318.924 5.2739 329.338 14.6065C339.751 23.9392 345.609 36.5927 345.625 49.791V182.541C345.609 195.739 339.751 208.393 329.338 217.726C318.924 227.058 304.805 232.308 290.078 232.322H164.897L94.314 285.07C92.0927 286.725 89.2953 287.633 86.4062 287.635Z" fill="#9747FF"/>
</svg>
