<svg width="59" height="59" viewBox="0 0 59 59" fill="none" xmlns="http://www.w3.org/2000/svg">
<circle cx="29.5" cy="29.5" r="29.5" fill="#E3E3E3" fill-opacity="0.75"/>
<g clip-path="url(#clip0_406_6142)">
<path d="M36 29.5H24V33.375H36V29.5ZM41.5625 20.3574L35.4438 14.4238C35.1625 14.1514 34.7812 14 34.3813 14H34V21.75H42V21.3807C42 20.9992 41.8438 20.6299 41.5625 20.3574ZM32 22.2344V14H19.5C18.6687 14 18 14.6479 18 15.4531V43.5469C18 44.3521 18.6687 45 19.5 45H40.5C41.3312 45 42 44.3521 42 43.5469V23.6875H33.5C32.675 23.6875 32 23.0336 32 22.2344ZM22 18.3594C22 18.0918 22.2238 17.875 22.5 17.875H27.5C27.7762 17.875 28 18.0918 28 18.3594V19.3281C28 19.5957 27.7762 19.8125 27.5 19.8125H22.5C22.2238 19.8125 22 19.5957 22 19.3281V18.3594ZM22 22.2344C22 21.9668 22.2238 21.75 22.5 21.75H27.5C27.7762 21.75 28 21.9668 28 22.2344V23.2031C28 23.4707 27.7762 23.6875 27.5 23.6875H22.5C22.2238 23.6875 22 23.4707 22 23.2031V22.2344ZM38 40.6406C38 40.9082 37.7763 41.125 37.5 41.125H32.5C32.2238 41.125 32 40.9082 32 40.6406V39.6719C32 39.4043 32.2238 39.1875 32.5 39.1875H37.5C37.7763 39.1875 38 39.4043 38 39.6719V40.6406ZM38 28.5312V34.3438C38 34.879 37.5525 35.3125 37 35.3125H23C22.4475 35.3125 22 34.879 22 34.3438V28.5312C22 27.996 22.4475 27.5625 23 27.5625H37C37.5525 27.5625 38 27.996 38 28.5312Z" fill="#6764FF"/>
</g>
<defs>
<clipPath id="clip0_406_6142">
<rect width="24" height="31" fill="white" transform="translate(18 11)"/>
</clipPath>
</defs>
</svg>
