<svg width="17" height="23" viewBox="0 0 17 23" fill="none" xmlns="http://www.w3.org/2000/svg">
<g clip-path="url(#clip0_306_6370)">
<path d="M8.05286 11.5043C7.83151 10.8168 7.83594 9.48906 7.96432 9.48906C8.3362 9.48906 8.30078 11.0746 8.05286 11.5043ZM7.9776 13.5324C7.63672 14.4004 7.21172 15.393 6.72031 16.2266C7.53047 15.9258 8.44687 15.4875 9.50495 15.2855C8.94271 14.873 8.4026 14.2801 7.9776 13.5324ZM3.81172 18.8949C3.81172 18.9293 4.39609 18.6629 5.35677 17.1676C5.06016 17.4383 4.06849 18.2203 3.81172 18.8949ZM10.9792 7.375H17V21.4688C17 22.0402 16.5263 22.5 15.9375 22.5H1.0625C0.473698 22.5 0 22.0402 0 21.4688V1.53125C0 0.959766 0.473698 0.5 1.0625 0.5H9.91667V6.34375C9.91667 6.91094 10.3948 7.375 10.9792 7.375ZM10.625 14.757C9.73958 14.2328 9.15078 13.5109 8.73464 12.4453C8.93385 11.6504 9.24818 10.443 9.00911 9.68672C8.80104 8.42344 7.13203 8.54805 6.89297 9.39453C6.67161 10.1809 6.87526 11.2895 7.25156 12.7031C6.73802 13.8891 5.98099 15.4789 5.44531 16.3898C5.44089 16.3898 5.44089 16.3941 5.43646 16.3941C4.23672 16.9914 2.17813 18.3062 3.0237 19.316C3.27161 19.6125 3.73203 19.7457 3.97552 19.7457C4.76797 19.7457 5.55599 18.9723 6.68047 17.0902C7.82266 16.725 9.07552 16.2695 10.1779 16.0934C11.1385 16.6004 12.263 16.9312 13.0112 16.9312C14.3039 16.9312 14.3924 15.5562 13.8833 15.0664C13.268 14.482 11.4794 14.6496 10.625 14.757ZM16.6901 5.01172L12.3516 0.800781C12.1523 0.607422 11.8823 0.5 11.599 0.5H11.3333V6H17V5.73789C17 5.46719 16.8893 5.20508 16.6901 5.01172ZM13.4096 15.9816C13.5911 15.8656 13.299 15.4703 11.5148 15.5949C13.1573 16.2738 13.4096 15.9816 13.4096 15.9816Z" fill="white"/>
</g>
<defs>
<clipPath id="clip0_306_6370">
<rect width="17" height="22" fill="white" transform="translate(0 0.5)"/>
</clipPath>
</defs>
</svg>
