<svg width="20" height="20" viewBox="0 0 20 20" fill="none" xmlns="http://www.w3.org/2000/svg">
<path d="M20 9.5C20 14.5741 15.5225 18.6875 10 18.6875C9.00956 18.6889 8.02323 18.5539 7.06625 18.2859C6.33625 18.6744 4.66 19.4199 1.84 19.9055C1.59 19.9475 1.4 19.6745 1.49875 19.4304C1.94125 18.3331 2.34125 16.871 2.46125 15.5375C0.93 13.9231 0 11.81 0 9.5C0 4.42588 4.4775 0.3125 10 0.3125C15.5225 0.3125 20 4.42588 20 9.5ZM6.25 9.5C6.25 9.1519 6.1183 8.81806 5.88388 8.57192C5.64946 8.32578 5.33152 8.1875 5 8.1875C4.66848 8.1875 4.35054 8.32578 4.11612 8.57192C3.8817 8.81806 3.75 9.1519 3.75 9.5C3.75 9.8481 3.8817 10.1819 4.11612 10.4281C4.35054 10.6742 4.66848 10.8125 5 10.8125C5.33152 10.8125 5.64946 10.6742 5.88388 10.4281C6.1183 10.1819 6.25 9.8481 6.25 9.5ZM11.25 9.5C11.25 9.1519 11.1183 8.81806 10.8839 8.57192C10.6495 8.32578 10.3315 8.1875 10 8.1875C9.66848 8.1875 9.35054 8.32578 9.11612 8.57192C8.8817 8.81806 8.75 9.1519 8.75 9.5C8.75 9.8481 8.8817 10.1819 9.11612 10.4281C9.35054 10.6742 9.66848 10.8125 10 10.8125C10.3315 10.8125 10.6495 10.6742 10.8839 10.4281C11.1183 10.1819 11.25 9.8481 11.25 9.5ZM15 10.8125C15.3315 10.8125 15.6495 10.6742 15.8839 10.4281C16.1183 10.1819 16.25 9.8481 16.25 9.5C16.25 9.1519 16.1183 8.81806 15.8839 8.57192C15.6495 8.32578 15.3315 8.1875 15 8.1875C14.6685 8.1875 14.3505 8.32578 14.1161 8.57192C13.8817 8.81806 13.75 9.1519 13.75 9.5C13.75 9.8481 13.8817 10.1819 14.1161 10.4281C14.3505 10.6742 14.6685 10.8125 15 10.8125Z" fill="#974AB3"/>
</svg>
