<svg width="24" height="25" viewBox="0 0 24 25" fill="none" xmlns="http://www.w3.org/2000/svg">
<path d="M10.7528 2.95031C11.4428 2.36031 12.5728 2.36031 13.2728 2.95031L14.8528 4.31031C15.1528 4.57031 15.7128 4.78031 16.1128 4.78031H17.8128C18.8728 4.78031 19.7428 5.65031 19.7428 6.71031V8.41031C19.7428 8.80031 19.9528 9.37031 20.2128 9.67031L21.5728 11.2503C22.1628 11.9403 22.1628 13.0703 21.5728 13.7703L20.2128 15.3503C19.9528 15.6503 19.7428 16.2103 19.7428 16.6103V18.3103C19.7428 19.3703 18.8728 20.2403 17.8128 20.2403H16.1128C15.7228 20.2403 15.1528 20.4503 14.8528 20.7103L13.2728 22.0703C12.5828 22.6603 11.4528 22.6603 10.7528 22.0703L9.17281 20.7103C8.87281 20.4503 8.31281 20.2403 7.91281 20.2403H6.18281C5.12281 20.2403 4.25281 19.3703 4.25281 18.3103V16.6003C4.25281 16.2103 4.04281 15.6503 3.79281 15.3503L2.44281 13.7603C1.86281 13.0703 1.86281 11.9503 2.44281 11.2603L3.79281 9.67031C4.04281 9.37031 4.25281 8.81031 4.25281 8.42031V6.70031C4.25281 5.64031 5.12281 4.77031 6.18281 4.77031H7.91281C8.30281 4.77031 8.87281 4.56031 9.17281 4.30031L10.7528 2.95031Z" fill="#15DB1D" fill-opacity="0.2" stroke="#15DB1D" stroke-width="1.5" stroke-linecap="round" stroke-linejoin="round"/>
<path d="M8.38281 12.4981L10.7928 14.9181L15.6228 10.0781" stroke="#15DB1D" stroke-opacity="0.5" stroke-width="1.5" stroke-linecap="round" stroke-linejoin="round"/>
</svg>
