<svg width="19" height="18" viewBox="0 0 19 18" fill="none" xmlns="http://www.w3.org/2000/svg">
<path d="M18.1646 15.4094L17.9663 15.2344C17.4036 14.7331 16.9111 14.1582 16.5021 13.5252C16.0554 12.6517 15.7876 11.6978 15.7146 10.7194V7.83773C15.7122 7.4877 15.681 7.13846 15.6213 6.79356C14.6332 6.59047 13.7456 6.05216 13.1088 5.26977C12.4721 4.48738 12.1253 3.50898 12.1271 2.50023V2.13273C11.518 1.833 10.8637 1.63591 10.1904 1.54939V0.814395C10.1904 0.607857 10.1084 0.409779 9.96233 0.263735C9.81628 0.117691 9.6182 0.0356445 9.41167 0.0356445C9.20513 0.0356445 9.00705 0.117691 8.86101 0.263735C8.71496 0.409779 8.63292 0.607857 8.63292 0.814395V1.57856C7.12542 1.79122 5.74575 2.54208 4.74863 3.69252C3.75151 4.84297 3.20426 6.31531 3.20792 7.83773V10.7194C3.13486 11.6978 2.86712 12.6517 2.42042 13.5252C2.01843 14.1566 1.53386 14.7314 0.979583 15.2344L0.78125 15.4094V17.0544H18.1646V15.4094Z" fill="#974AB3"/>
</svg>
