<svg width="24" height="24" viewBox="0 0 24 24" fill="none" xmlns="http://www.w3.org/2000/svg">
<path d="M23.8975 0.664773C24.0904 1.13068 24.011 1.52841 23.6592 1.85795L15.268 10.2614V22.9091C15.268 23.3864 15.0467 23.7216 14.6042 23.9148C14.4567 23.9716 14.3148 24 14.1787 24C13.8723 24 13.617 23.892 13.4127 23.6761L9.05541 19.3125C8.83981 19.0966 8.73201 18.8409 8.73201 18.5455V10.2614L0.34077 1.85795C-0.0109926 1.52841 -0.0904229 1.13068 0.102479 0.664773C0.295381 0.221591 0.630123 0 1.10671 0H22.8933C23.3699 0 23.7046 0.221591 23.8975 0.664773Z" fill="#9747FF"/>
</svg>
