<svg width="24" height="24" viewBox="0 0 24 24" fill="none" xmlns="http://www.w3.org/2000/svg">
<path d="M17.1143 15.5166V17.0448L17.6832 16.2686L23.2082 21.7936C23.2082 21.7936 23.2083 21.7937 23.2083 21.7937C23.3957 21.9813 23.501 22.2358 23.5009 22.501C23.5008 22.7663 23.3953 23.0207 23.2077 23.2082C23.02 23.3957 22.7655 23.501 22.5002 23.5009C22.2349 23.5008 21.9806 23.3954 21.793 23.2077L21.7929 23.2076L16.2688 17.6835L17.0452 17.1136H15.5188H15.5173H14.5173L14.8064 17.4991C13.0051 18.6751 10.8446 19.1894 8.69681 18.9433C6.38078 18.6778 4.25038 17.5477 2.73182 15.779C1.21326 14.0103 0.418522 11.7334 0.506613 9.40388C0.594704 7.07437 1.55912 4.86401 3.20693 3.21503C4.85473 1.56604 7.0644 0.600041 9.39385 0.510283C11.7233 0.420525 14.0008 1.21363 15.7706 2.73093C17.5404 4.24823 18.672 6.37782 18.9391 8.69365C19.1868 10.8417 18.6738 13.0031 17.4985 14.8055L17.1143 14.5195V15.5151V15.5166ZM17.8353 13.0991C18.275 12.0375 18.5013 10.8997 18.5013 9.75064C18.5013 7.43 17.5795 5.2044 15.9385 3.56345C14.2976 1.92251 12.072 1.00064 9.75135 1.00064C7.4307 1.00064 5.20511 1.92251 3.56416 3.56345C1.92322 5.2044 1.00135 7.42999 1.00135 9.75064C1.00135 10.8997 1.22767 12.0375 1.6674 13.0991C2.10713 14.1607 2.75165 15.1253 3.56416 15.9378C4.37668 16.7503 5.34127 17.3949 6.40287 17.8346C7.46447 18.2743 8.60228 18.5006 9.75135 18.5006C10.9004 18.5006 12.0382 18.2743 13.0998 17.8346C14.1614 17.3949 15.126 16.7503 15.9385 15.9378C16.751 15.1253 17.3956 14.1607 17.8353 13.0991Z" fill="#9747FF" stroke="#9747FF"/>
</svg>
