<?xml version="1.0" standalone="no"?>
<svg xmlns:xlink="http://www.w3.org/1999/xlink" width="100%" id="wave" style="transform:rotate(0deg); transition: 0.3s" viewBox="0 0 1440 490" version="1.1" xmlns="http://www.w3.org/2000/svg"><defs><linearGradient id="sw-gradient-0" x1="0" x2="0" y1="1" y2="0"><stop stop-color="rgba(245.799, 245.799, 245.799, 1)" offset="0%"/><stop stop-color="rgba(248.075, 248.075, 248.075, 1)" offset="100%"/></linearGradient></defs><path style="transform:translate(0, 0px); opacity:1" fill="url(#sw-gradient-0)" d="M0,392L60,375.7C120,359,240,327,360,318.5C480,310,600,327,720,351.2C840,376,960,408,1080,424.7C1200,441,1320,441,1440,383.8C1560,327,1680,212,1800,171.5C1920,131,2040,163,2160,196C2280,229,2400,261,2520,269.5C2640,278,2760,261,2880,253.2C3000,245,3120,245,3240,212.3C3360,180,3480,114,3600,114.3C3720,114,3840,180,3960,204.2C4080,229,4200,212,4320,171.5C4440,131,4560,65,4680,40.8C4800,16,4920,33,5040,89.8C5160,147,5280,245,5400,294C5520,343,5640,343,5760,351.2C5880,359,6000,376,6120,343C6240,310,6360,229,6480,187.8C6600,147,6720,147,6840,171.5C6960,196,7080,245,7200,285.8C7320,327,7440,359,7560,375.7C7680,392,7800,392,7920,375.7C8040,359,8160,327,8280,302.2C8400,278,8520,261,8580,253.2L8640,245L8640,490L8580,490C8520,490,8400,490,8280,490C8160,490,8040,490,7920,490C7800,490,7680,490,7560,490C7440,490,7320,490,7200,490C7080,490,6960,490,6840,490C6720,490,6600,490,6480,490C6360,490,6240,490,6120,490C6000,490,5880,490,5760,490C5640,490,5520,490,5400,490C5280,490,5160,490,5040,490C4920,490,4800,490,4680,490C4560,490,4440,490,4320,490C4200,490,4080,490,3960,490C3840,490,3720,490,3600,490C3480,490,3360,490,3240,490C3120,490,3000,490,2880,490C2760,490,2640,490,2520,490C2400,490,2280,490,2160,490C2040,490,1920,490,1800,490C1680,490,1560,490,1440,490C1320,490,1200,490,1080,490C960,490,840,490,720,490C600,490,480,490,360,490C240,490,120,490,60,490L0,490Z"/></svg>




